<svg width="149" height="51" viewBox="0 0 149 51" fill="none" xmlns="http://www.w3.org/2000/svg">
<g clip-path="url(#clip0_11_442)">
<path d="M25.1641 3.15717C28.5948 3.20574 33.0701 3.52145 36.1071 4.54145C37.8667 5.27812 37.7783 7.24526 37.8024 8.96955C37.6337 11.5438 38.2443 15.4619 37.3283 17.6719C36.8141 18.611 35.9062 18.0767 35.1028 16.3281C33.7771 13.5676 33.8815 9.03431 30.3544 8.29764C25.2444 7.39098 15.4343 7.06717 11.4251 10.6048C6.58831 16.2472 5.4233 25.0224 6.55617 32.5105C7.64886 39.5776 12.4374 45.0905 19.9658 46.3695C23.043 46.9362 27.3254 46.9848 30.0732 46.2643C31.6801 45.8434 31.8729 44.1029 31.889 42.6457C31.9292 39.7072 32.0416 34.9957 32.0175 32.8181C32.0818 31.5634 31.3587 30.7053 30.1535 30.511C28.4502 30.0576 25.1721 29.8472 23.7098 29.1105C23.3403 28.9486 22.9546 28.7138 22.7296 28.4467C22.0306 27.3457 23.975 27.1515 24.7704 27.1515C28.6993 27.1515 37.7461 27.1434 41.5545 27.1515C44.2862 27.1676 43.9166 28.641 41.1608 29.7662C39.2888 30.3895 37.7461 30.851 37.8185 33.1905C37.7622 36.4448 37.8345 43.3419 37.7783 46.5962C37.8185 48.0695 37.0793 49.2757 35.5929 49.5834C22.0306 52.9591 4.29044 51.1296 0.819527 34.6719C-2.94062 17.0324 6.41155 2.98717 25.0034 3.15717H25.1641ZM118.694 47.4867C119.907 48.0453 124.294 49.5995 122.189 50.4657C119.706 50.7976 116.774 50.4981 112.314 50.5953C105.083 50.5791 96.2052 50.6195 93.12 50.571C91.7943 50.5143 91.5211 49.6886 93.0557 48.6767C93.827 48.11 95.0161 47.6729 95.7071 47.1386C96.3499 46.6205 96.5588 45.8676 96.5989 44.6372C96.6471 43.18 96.7114 41.0591 96.7757 38.7276L96.9846 31.7495C97.0489 29.3534 97.1372 27.37 97.1613 25.2895C97.1694 23.6624 96.5909 22.7072 95.0724 21.7924C91.8104 19.8253 87.8172 19.55 84.266 21.08C82.2573 21.8086 80.4094 23.1929 80.6424 25.4919C80.6344 29.661 80.6424 39.7153 80.6424 44.37C80.6665 45.2443 80.554 45.981 80.8915 46.7257C80.9638 47.7295 86.2424 48.8386 85.2221 50.1096C84.0008 50.9272 80.6826 50.4738 78.0955 50.5872C75.7012 50.4253 72.865 50.9919 70.6716 50.1824C69.4744 49.1138 72.8811 47.9238 73.8613 47.2519C74.6004 46.7419 74.7933 45.9972 74.8575 45.0905C75.0022 40.8405 75.2834 29.2481 75.4039 24.8605C75.428 23.9619 75.42 23.1524 75.0263 22.3267C74.4719 21.1205 72.8569 19.4772 73.1462 18.0524C73.3631 16.6276 76.1431 15.7776 77.6777 15.4943C79.4292 15.1543 80.096 16.9515 80.3933 18.3519C81.6949 24.2291 86.5156 10.3862 97.9407 17C99.9574 18.2791 102.303 19.9305 102.32 22.5291C102.52 27.0624 102.006 40.3791 102.52 46.6448C103.742 48.8953 110.105 48.5634 111.511 46.8229C111.881 46.3615 112.001 45.73 112.033 45.0905C112.17 40.5976 112.443 30.1629 112.58 24.6015C113.158 21.2986 107.14 18.1091 112.539 16.1986C113.978 15.7695 116.219 14.6767 117.457 15.4781C117.762 15.7938 117.802 16.401 117.802 16.9029C117.81 22.5534 117.794 41.4315 117.81 45.9891C117.834 46.6367 117.971 47.09 118.589 47.4381L118.67 47.4867H118.694ZM71.7884 23.9215C70.5028 18.53 65.3125 14.871 59.9053 14.9843H59.7446C41.7554 14.5876 38.5898 45.8434 55.2212 50.3686C60.2588 51.6395 65.8428 50.1581 69.8279 46.8715C70.4787 46.3534 72.174 44.5805 70.2779 44.6534C68.4139 44.88 66.2847 45.8757 64.3725 46.1105C61.1025 46.6691 57.262 46.2724 54.5061 44.2729C52.2484 42.7834 48.6731 37.6105 50.8424 35.1091C51.5816 34.4372 52.8189 34.3319 53.8232 34.2834C57.5351 34.1295 61.3837 33.83 65.0233 33.4253C67.1525 32.9881 69.9565 33.3929 71.475 31.5634C72.8168 29.41 72.2785 26.3257 71.7884 23.9215ZM67.1042 30.2438C66.8712 30.7781 66.3731 30.9238 65.8027 30.9481C62.9263 30.9967 54.6186 31.0776 51.3164 31.11C50.5371 31.1181 49.7015 31.0129 49.6774 30.0738C49.6533 28.3738 50.3362 26.1072 50.9468 24.4072C51.9753 20.6753 55.5667 18.9915 59.1501 18.9995H59.3108C65.2161 18.9024 68.4219 24.99 67.1042 30.2438ZM148.47 23.9215C147.184 18.53 141.994 14.871 136.587 14.9843H136.426C118.437 14.5876 115.271 45.8434 131.903 50.3686C136.94 51.6395 142.524 50.1581 146.509 46.8715C147.16 46.3534 148.855 44.5805 146.959 44.6534C145.095 44.88 142.966 45.8757 141.054 46.1105C137.784 46.6691 133.943 46.2724 131.188 44.2729C128.93 42.7834 125.354 37.6105 127.524 35.1091C128.263 34.4372 129.5 34.3319 130.505 34.2834C134.217 34.1295 138.065 33.83 141.705 33.4253C143.834 32.9881 146.638 33.3929 148.156 31.5634C149.498 29.41 148.96 26.3257 148.47 23.9215ZM143.786 30.2438C143.553 30.7781 143.054 30.9238 142.484 30.9481C139.608 30.9967 131.3 31.0776 127.998 31.11C127.218 31.1181 126.383 31.0129 126.359 30.0738C126.335 28.3738 127.018 26.1072 127.628 24.4072C128.657 20.6753 132.248 18.9915 135.831 18.9995H135.992C141.898 18.9024 145.103 24.99 143.786 30.2438Z" fill="black"/>
<path d="M36.1071 4.54145C33.0701 3.52145 28.5948 3.20574 25.1641 3.15717H25.0034C6.41155 2.98717 -2.94062 17.0324 0.819527 34.6719C4.29044 51.1296 22.0306 52.9591 35.5929 49.5834C37.0793 49.2757 37.8185 48.0695 37.7783 46.5962C37.8345 43.3419 37.7622 36.4448 37.8185 33.1905C37.7461 30.851 39.2888 30.3895 41.1608 29.7662C43.9166 28.641 44.2862 27.1676 41.5545 27.1515C37.7461 27.1434 28.6993 27.1515 24.7704 27.1515C23.975 27.1515 22.0306 27.3457 22.7296 28.4467C22.9546 28.7138 23.3403 28.9486 23.7098 29.1105C25.1721 29.8472 28.4502 30.0576 30.1535 30.511C31.3587 30.7053 32.0818 31.5634 32.0175 32.8181C32.0416 34.9957 31.9292 39.7072 31.889 42.6457C31.8729 44.1029 31.6801 45.8434 30.0732 46.2643C27.3254 46.9848 23.043 46.9362 19.9658 46.3695C12.4374 45.0905 7.64886 39.5776 6.55617 32.5105C5.4233 25.0224 6.58831 16.2472 11.4251 10.6048C15.4343 7.06717 25.2444 7.39098 30.3544 8.29764C33.8815 9.03431 33.7771 13.5676 35.1028 16.3281C35.9062 18.0767 36.8141 18.611 37.3283 17.6719C38.2443 15.4619 37.6337 11.5438 37.8024 8.96955C37.7783 7.24526 37.8667 5.27812 36.1071 4.54145Z" fill="black"/>
<path d="M114.178 11.39C113.921 11.3576 113.752 11.0014 113.608 10.7586C112.475 8.7024 111.278 7.25335 109.052 6.21716C108.61 6.00669 108.04 5.65859 108.731 5.3024C109.751 4.7924 110.828 4.21764 111.623 3.40002C112.475 2.62288 113.118 1.3924 113.761 0.234783C114.098 -0.291407 114.468 0.13764 114.676 0.542402C115.785 2.5824 116.998 4.06383 119.304 5.10812C119.738 5.3105 120.381 5.65859 119.69 6.03097C118.686 6.54907 117.609 7.09145 116.798 7.87669C115.93 8.62954 115.199 9.85192 114.572 11.0581C114.468 11.2281 114.355 11.3414 114.251 11.3738H114.17L114.178 11.39Z" fill="black"/>
</g>
<defs>
<clipPath id="clip0_11_442">
<rect width="149" height="51" fill="white"/>
</clipPath>
</defs>
</svg>
