<svg xmlns="http://www.w3.org/2000/svg" viewBox="-8 -4 66 66">
  <rect x="-8" y="-4" width="66" height="66" fill="black"/>
  <path fill="white" d="M31.32,3.9c4.27.06,9.84.45,13.62,1.71,2.19.91,2.08,3.34,2.11,5.47-.21,3.18.55,8.02-.59,10.75-.64,1.16-1.77.5-2.77-1.66-1.65-3.41-1.52-9.01-5.91-9.92-6.36-1.12-18.57-1.52-23.56,2.85-6.02,6.97-7.47,17.81-6.06,27.06,1.36,8.73,7.32,15.54,16.69,17.12,3.83.7,9.16.76,12.58-.13,2-.52,2.24-2.67,2.26-4.47.05-3.63.19-9.45.16-12.14.08-1.55-.82-2.61-2.32-2.85-2.12-.56-6.2-.82-8.02-1.73-.46-.2-.94-.49-1.22-.82-.87-1.36,1.55-1.6,2.54-1.6,4.89,0,16.15-.01,20.89,0,3.4.02,2.94,1.84-.49,3.23-2.33.77-4.25,1.34-4.16,4.23-.07,4.02.02,12.54-.05,16.56.05,1.82-.87,3.31-2.72,3.69-16.88,4.17-38.96,1.91-43.28-18.42C-3.66,21.04,7.98,3.69,31.12,3.9h.2Z"/>
</svg>
